<?xml version="1.0" encoding="utf-8"?>
<!-- Generator: Adobe Illustrator 16.0.4, SVG Export Plug-In . SVG Version: 6.00 Build 0)  -->
<!DOCTYPE svg PUBLIC "-//W3C//DTD SVG 1.1//EN" "http://www.w3.org/Graphics/SVG/1.1/DTD/svg11.dtd">
<svg version="1.1" id="Layer_1" xmlns="http://www.w3.org/2000/svg" xmlns:xlink="http://www.w3.org/1999/xlink" x="0px" y="0px"
	 width="50px" height="50px" viewBox="0 0 50 50" enable-background="new 0 0 50 50" xml:space="preserve">
<g>
	<circle fill="#E8B720" cx="21.934" cy="21.956" r="12.219"/>
	<path fill="#E8B720" d="M26.932,7.828h0.2L21.934,0l-5.198,7.827h0.19c1.566-0.56,3.249-0.872,5.008-0.872
		C23.688,6.956,25.367,7.269,26.932,7.828z"/>
	<path fill="#E8B720" d="M15.501,8.417l0.133-0.133l-9.21-1.859l1.858,9.21l0.141-0.141C9.904,12.4,12.407,9.894,15.501,8.417z"/>
	<path fill="#E8B720" d="M7.826,16.899v-0.163L0,21.935l7.826,5.198v-0.129c-0.569-1.577-0.893-3.272-0.893-5.048
		C6.934,20.178,7.259,18.481,7.826,16.899z"/>
	<path fill="#E8B720" d="M35.465,15.515l0.12,0.12l1.858-9.21l-9.211,1.859l0.142,0.141C31.477,9.904,33.984,12.412,35.465,15.515z"
		/>
	<path fill="#A3A3A3" d="M15.992,16.606c1.228-3.516,4.569-6.04,8.506-6.04c1.095,0,2.148,0.197,3.124,0.555
		c1.44-0.976,3.181-1.548,5.047-1.548c4.33,0,7.946,3.059,8.812,7.128c4.074,0.862,7.129,4.478,7.129,8.809
		c0,4.975-4.027,9.002-9.004,9.002h-22.29c-4.975,0-9.005-4.027-9.005-9.002C8.312,20.989,11.646,17.246,15.992,16.606
		L15.992,16.606z"/>
	<path fill="#ECECEC" d="M18.31,19.402c0.089-3.342,2.824-6.022,6.189-6.022c1.313,0,2.53,0.41,3.53,1.104
		c1.135-1.283,2.793-2.096,4.645-2.096c3.42,0,6.194,2.773,6.194,6.192c0,0.269-0.021,0.534-0.052,0.795
		c0.264-0.031,0.522-0.05,0.795-0.05c3.42,0,6.195,2.774,6.195,6.192c0,3.42-2.774,6.189-6.195,6.189c-3.42,0-18.927,0-22.292,0
		c-3.42,0-6.194-2.771-6.194-6.189c0-3.419,2.774-6.192,6.194-6.192C17.654,19.323,17.985,19.35,18.31,19.402L18.31,19.402z"/>
	<path fill="#A3A3A3" d="M11.84,25.259c1.366-2.224,3.823-3.703,6.625-3.703c3.727,0,6.841,2.617,7.596,6.124l-3.712-2.054
		c0.839-0.306,1.737-0.47,2.673-0.47c4.278,0,7.766,3.46,7.766,7.749c0,4.289-3.489,7.748-7.766,7.748H13.126
		c-4.279,0-7.766-3.461-7.766-7.752C5.36,29.053,8.169,25.869,11.84,25.259L11.84,25.259z"/>
	<path fill="#ECECEC" d="M23.311,28.268c0.531-0.191,1.105-0.301,1.708-0.301c2.732,0,4.952,2.207,4.952,4.936
		c0,2.729-2.22,4.939-4.952,4.939c-2.381,0-9.606,0-11.892,0c-2.733,0-4.951-2.21-4.951-4.939c0-2.725,2.218-4.936,4.951-4.936
		c0.19,0,0.377,0.012,0.561,0.028c0.575-2.093,2.496-3.631,4.778-3.631C20.845,24.368,22.833,26.039,23.311,28.268L23.311,28.268z"
		/>
	<path fill="#4897FF" d="M23.238,42.572c0.373,0.705,0.583,1.515,0.583,2.365c0,2.799-2.266,5.062-5.063,5.062
		c-2.798,0-5.064-2.266-5.064-5.062c0-0.854,0.211-1.658,0.583-2.365l3.105-5.846c0,0,0.474-1.013,1.372-1.013
		c0.948,0,1.394,1.013,1.394,1.013L23.238,42.572L23.238,42.572z"/>
	<path fill="#4897FF" d="M37.624,38.906c0.334,0.635,0.524,1.357,0.524,2.131c0,2.512-2.039,4.553-4.557,4.553
		c-2.52,0-4.557-2.041-4.557-4.553c0-0.768,0.188-1.493,0.521-2.131l2.797-5.266c0,0,0.426-0.908,1.236-0.908
		c0.852,0,1.247,0.908,1.247,0.908L37.624,38.906L37.624,38.906z"/>
</g>
</svg>
