<?xml version="1.0" encoding="utf-8"?>
<!-- Generator: Adobe Illustrator 16.0.4, SVG Export Plug-In . SVG Version: 6.00 Build 0)  -->
<!DOCTYPE svg PUBLIC "-//W3C//DTD SVG 1.1//EN" "http://www.w3.org/Graphics/SVG/1.1/DTD/svg11.dtd">
<svg version="1.1" id="Layer_1" xmlns="http://www.w3.org/2000/svg" xmlns:xlink="http://www.w3.org/1999/xlink" x="0px" y="0px"
	 width="50px" height="50px" viewBox="0 0 50 50" enable-background="new 0 0 50 50" xml:space="preserve">
<g>
	<circle fill="#E8B720" cx="24.965" cy="25.01" r="13.907"/>
	<path fill="#E8B720" d="M30.652,8.928h0.229l-5.917-8.908l-5.917,8.908h0.217c1.783-0.636,3.698-0.992,5.7-0.992
		C26.962,7.937,28.873,8.292,30.652,8.928z"/>
	<path fill="#E8B720" d="M17.643,9.6l0.151-0.151L7.312,7.333l2.115,10.483l0.16-0.16C11.273,14.132,14.122,11.28,17.643,9.6z"/>
	<path fill="#E8B720" d="M8.908,19.254v-0.186L0,24.985l8.908,5.917v-0.147C8.26,28.96,7.892,27.03,7.892,25.01
		C7.892,22.987,8.262,21.055,8.908,19.254z"/>
	<path fill="#E8B720" d="M9.514,32.242l-0.087-0.086L7.313,42.639l10.481-2.115l-0.087-0.087
		C14.111,38.742,11.204,35.838,9.514,32.242z"/>
	<path fill="#E8B720" d="M19.144,41.042h-0.096l5.917,8.909l5.917-8.909h-0.113c-1.812,0.663-3.761,1.041-5.804,1.041
		C22.917,42.083,20.963,41.702,19.144,41.042z"/>
	<path fill="#E8B720" d="M40.39,32.27c-1.694,3.596-4.598,6.499-8.191,8.19l-0.063,0.063l10.483,2.115l-2.115-10.482L40.39,32.27z"
		/>
	<path fill="#E8B720" d="M41.021,30.766v0.137l8.909-5.917l-8.909-5.917v0.197c0.649,1.795,1.016,3.723,1.016,5.744
		C42.037,27.032,41.668,28.964,41.021,30.766z"/>
	<path fill="#E8B720" d="M40.366,17.678l0.137,0.138l2.115-10.483L32.135,9.449l0.16,0.16
		C35.827,11.292,38.681,14.147,40.366,17.678z"/>
</g>
</svg>
