<?xml version="1.0" encoding="UTF-8"?>
<!-- Generator: Adobe Illustrator 18.1.1, SVG Export Plug-In . SVG Version: 6.00 Build 0)  -->
<svg version="1.1" id="Ebene_2" xmlns="http://www.w3.org/2000/svg" xmlns:xlink="http://www.w3.org/1999/xlink" x="0px" y="0px" viewBox="0 0 45.355 45.354" enable-background="new 0 0 45.355 45.354" xml:space="preserve">
<rect x="12.624" y="33.25" transform="matrix(-0.9689 -0.2474 0.2474 -0.9689 17.6494 74.7984)" fill="#00345F" width="1.8" height="6.081"/>
<rect x="16.749" y="38.375" transform="matrix(-0.9689 -0.2474 0.2474 -0.9689 24.5034 85.9096)" fill="#00345F" width="1.8" height="6.081"/>
<rect x="23.166" y="33.25" transform="matrix(-0.9689 -0.2474 0.2474 -0.9689 38.4058 77.4063)" fill="#00345F" width="1.8" height="6.081"/>
<path fill="#00345F" d="M30.349,20.46c-0.463-0.039-0.896-0.012-1.316,0.041c0.004-0.091,0.014-0.181,0.014-0.272  c0-3.613-2.94-6.553-6.554-6.553c-2.659,0-4.948,1.595-5.974,3.876c-0.721-0.807-1.767-1.318-2.935-1.318  c-2.174,0-3.935,1.762-3.935,3.937c0,0.119,0.024,0.231,0.035,0.347c-0.49-0.08-1.009-0.11-1.559-0.064  c-2.656,0.224-4.829,2.163-4.829,4.83c0,2.668,2.162,4.83,4.829,4.83c1.176,0,21.051,0,22.225,0c2.666,0,4.827-2.161,4.827-4.828  C35.176,22.621,33.004,20.682,30.349,20.46z"/>
<rect x="37.26" y="10.528" fill="#00345F" width="3.537" height="1.538"/>
<rect x="28.232" y="0" fill="#00345F" width="1.539" height="3.038"/>
<rect x="34.399" y="3.656" transform="matrix(0.7071 -0.7071 0.7071 0.7071 7.3911 26.694)" fill="#00345F" width="3.038" height="1.539"/>
<rect x="20.642" y="3.582" transform="matrix(0.7071 0.7071 -0.7071 0.7071 9.5676 -14.3959)" fill="#00345F" width="3.038" height="1.539"/>
<rect x="34.392" y="17.415" transform="matrix(0.7071 0.7071 -0.7071 0.7071 23.3766 -20.0669)" fill="#00345F" width="3.038" height="1.539"/>
<rect x="17.689" y="10.541" fill="#00345F" width="3.038" height="1.539"/>
<path fill="#00345F" d="M28.931,5.912c-2.952,0-5.349,2.395-5.349,5.35c0,0.21,0.015,0.417,0.04,0.62  c2.942,0.053,5.43,1.975,6.33,4.629c2.467-0.477,4.331-2.644,4.331-5.249C34.283,8.307,31.888,5.912,28.931,5.912z"/>
</svg>