<?xml version="1.0" encoding="UTF-8"?>
<!-- Generator: Adobe Illustrator 16.0.4, SVG Export Plug-In . SVG Version: 6.00 Build 0)  -->
<!DOCTYPE svg PUBLIC "-//W3C//DTD SVG 1.1//EN" "http://www.w3.org/Graphics/SVG/1.1/DTD/svg11.dtd">
<svg version="1.1" id="Layer_1" xmlns="http://www.w3.org/2000/svg" xmlns:xlink="http://www.w3.org/1999/xlink" x="0px" y="0px" width="50.0px" height="50.0px" viewBox="0 0 34.811 36.714" enable-background="new 0 0 34.811 36.714" xml:space="preserve">
<g>
	<path fill="#FCF06B" d="M15.122,1.312L18.001,0c-0.524,1.991-1.191,3.967-1.191,6.049c0,6.452,5.229,11.683,11.685,11.683   c2.083,0,4.06-0.667,6.05-1.193c-2.755,6.044-6.215,10.884-13.757,10.884c-7.551,0-13.67-6.118-13.67-13.667   C7.115,8.224,10.401,3.463,15.122,1.312L15.122,1.312z"/>
	<path fill="#A3A3A3" d="M6.635,21.242c1.06-3.038,3.948-5.217,7.348-5.217c0.947,0,1.856,0.17,2.698,0.481   c1.243-0.843,2.745-1.337,4.361-1.337c3.738,0,6.862,2.64,7.607,6.157c3.52,0.745,6.159,3.869,6.159,7.609   c0,4.295-3.481,7.777-7.778,7.777H7.778C3.483,36.714,0,33.231,0,28.937C0,25.028,2.882,21.794,6.635,21.242L6.635,21.242z"/>
	<path fill="#FFFFFF" d="M8.636,23.658c0.076-2.887,2.44-5.203,5.346-5.203c1.134,0,2.186,0.353,3.049,0.955   c0.98-1.111,2.413-1.811,4.012-1.811c2.953,0,5.349,2.395,5.349,5.348c0,0.232-0.016,0.461-0.044,0.686   c0.225-0.027,0.452-0.043,0.687-0.043c2.953,0,5.349,2.395,5.349,5.349c0,2.953-2.396,5.349-5.349,5.349s-16.349,0-19.254,0   c-2.953,0-5.348-2.396-5.348-5.349c0-2.954,2.395-5.349,5.348-5.349C8.07,23.589,8.356,23.612,8.636,23.658L8.636,23.658z"/>
</g>
</svg>