<?xml version="1.0" encoding="utf-8"?>
<!-- Generator: Adobe Illustrator 16.0.4, SVG Export Plug-In . SVG Version: 6.00 Build 0)  -->
<!DOCTYPE svg PUBLIC "-//W3C//DTD SVG 1.1//EN" "http://www.w3.org/Graphics/SVG/1.1/DTD/svg11.dtd">
<svg version="1.1" id="Layer_1" xmlns="http://www.w3.org/2000/svg" xmlns:xlink="http://www.w3.org/1999/xlink" x="0px" y="0px"
	 width="50px" height="50px" viewBox="0 0 50 50" enable-background="new 0 0 50 50" xml:space="preserve">
<g>
	<path fill="#8F8F8F" d="M10.933,7.932c1.384-3.968,5.156-6.813,9.597-6.813c1.237,0,2.423,0.222,3.524,0.628
		C25.678,0.645,27.639,0,29.748,0c4.883,0,8.963,3.448,9.936,8.043c4.601,0.973,8.045,5.052,8.045,9.937
		c0,5.611-4.547,10.157-10.16,10.157H12.426C6.816,28.139,2.267,23.59,2.267,17.98C2.267,12.876,6.03,8.653,10.933,7.932
		L10.933,7.932z"/>
	<path fill="#CECECE" d="M13.546,11.084c0.1-3.769,3.187-6.794,6.982-6.794c1.482,0,2.856,0.461,3.982,1.246
		c1.28-1.449,3.151-2.363,5.24-2.363c3.857,0,6.986,3.126,6.986,6.983c0,0.303-0.021,0.602-0.057,0.896
		c0.291-0.038,0.588-0.056,0.896-0.056c3.854,0,6.985,3.126,6.985,6.983s-3.129,6.985-6.985,6.985s-21.354,0-25.147,0
		c-3.856,0-6.985-3.129-6.985-6.985c0-3.857,3.129-6.983,6.985-6.983C12.807,10.996,13.181,11.026,13.546,11.084L13.546,11.084z"/>
	<path fill="#8F8F8F" d="M11.688,21.136c1.542-2.509,4.314-4.18,7.475-4.18c4.203,0,7.718,2.953,8.569,6.907l-4.191-2.314
		c0.944-0.346,1.96-0.532,3.014-0.532c4.828,0,8.76,3.904,8.76,8.743c0,4.838-3.932,8.742-8.76,8.742H13.138
		c-4.829,0-8.761-3.904-8.761-8.742C4.376,25.415,7.546,21.824,11.688,21.136L11.688,21.136z"/>
	<path fill="#CECECE" d="M24.626,24.528c0.599-0.219,1.249-0.338,1.924-0.338c3.087,0,5.587,2.494,5.587,5.569
		c0,3.074-2.5,5.569-5.587,5.569c-2.684,0-10.836,0-13.412,0c-3.086,0-5.587-2.494-5.587-5.569s2.502-5.569,5.587-5.569
		c0.211,0,0.423,0.012,0.631,0.035c0.649-2.36,2.814-4.094,5.39-4.094C21.845,20.13,24.086,22.014,24.626,24.528L24.626,24.528z"/>
	<path fill="#4897FF" d="M24.051,41.376c0.42,0.797,0.658,1.709,0.658,2.67c0,3.156-2.556,5.711-5.711,5.711
		c-3.157,0-5.711-2.555-5.711-5.711c0-0.961,0.239-1.869,0.658-2.67l3.503-6.594c0,0,0.533-1.139,1.549-1.139
		c1.068,0,1.571,1.139,1.571,1.139L24.051,41.376L24.051,41.376z"/>
	<path fill="#4897FF" d="M40.279,34.16c0.377,0.716,0.593,1.531,0.593,2.402c0,2.834-2.302,5.138-5.138,5.138
		c-2.84,0-5.143-2.304-5.143-5.138c0-0.865,0.217-1.685,0.594-2.402l3.152-5.939c0,0,0.479-1.022,1.396-1.022
		c0.961,0,1.408,1.022,1.408,1.022L40.279,34.16L40.279,34.16z"/>
</g>
</svg>
